# xmcd
#
# Track frame offsets:
#  150
#  15329
#  27011
#  38339
#  51561
#  60283
#  73993
#  83753
#  95073
#  106720
#  121976
#  136340
#
# Disc length: 1947 seconds
#
# Revision: 0
# Processed by: cddbd v1.5.1PL0 Copyright (c) Steve Scherf et al.
# Submitted via: Collectorz.com Music Collector 6.9
#
DISCID=9107990c
DTITLE=Various Artist - Tumbling Tumbleweeds  (Record 2 of 7)
DYEAR=1900
DGENRE=Country
TTITLE0=Jimmie Davis - You Are My Sunshine
TTITLE1=Rex Allen - On Top of Old Smoky
TTITLE2=Bing Crosby with Chorus - Clementine
TTITLE3=Ford, Tennessee Ernie - The Ballad of Davy Crockett
TTITLE4=Ritter, Tex - Big Rock Candy Mountain
TTITLE5=Charlie McCoy - Shenandoah
TTITLE6=The Sons Of The Pioneers - Home On The Range
TTITLE7=Rex Allen - Sweet Betsy From Pike
TTITLE8=Slim Whitman' - Down In The Valley
TTITLE9=Weavers, The - So Long (It's Been Good To Know Yuh)
TTITLE10=Arnold, Eddy - I'm Thinking Tonight of My Blue Eyes
TTITLE11=Whitman, Slim - The Cattle Call
EXTD=
EXTT0=
EXTT1=
EXTT2=
EXTT3=
EXTT4=
EXTT5=
EXTT6=
EXTT7=
EXTT8=
EXTT9=
EXTT10=
EXTT11=
PLAYORDER=
